<svg width="13" height="14" viewBox="0 0 13 14" fill="none" xmlns="http://www.w3.org/2000/svg">
<path fill-rule="evenodd" clip-rule="evenodd" d="M12.0778 3.83119C12.7365 4.39756 12.5775 5.66259 11.7227 6.65672C10.8679 7.65085 9.64101 7.99763 8.98232 7.43126C8.32363 6.8649 8.4826 5.59987 9.33738 4.60574C10.1922 3.61161 11.4191 3.26483 12.0778 3.83119ZM5.5647 5.45843C6.38453 5.74569 7.4006 4.97551 7.83415 3.73817C8.2677 2.50084 7.95456 1.26492 7.13473 0.977655C6.3149 0.690394 5.29884 1.46058 4.86529 2.69791C4.43174 3.93525 4.74488 5.17117 5.5647 5.45843ZM8.25069 11.8153C7.82028 11.0286 7.62086 10.1332 7.67976 9.23889C7.72253 8.39582 7.41477 7.65308 6.78665 7.29043C6.15853 6.92779 5.36393 7.03408 4.65268 7.4912C3.90764 7.98936 3.03245 8.26438 2.13599 8.28496C1.50698 8.28505 1.02531 8.46102 0.814133 8.82679C0.289827 9.73492 1.56729 11.4546 3.67111 12.6692C5.77493 13.8839 7.90293 14.1303 8.42724 13.2222C8.65181 12.8507 8.57929 12.3413 8.25069 11.8153ZM11.7594 11.2898C12.6022 10.6955 12.9659 9.76084 12.5719 9.20209C12.1779 8.64334 11.1753 8.67213 10.3326 9.26638C9.48988 9.86064 9.12612 10.7953 9.52013 11.3541C9.91414 11.9128 10.9167 11.884 11.7594 11.2898ZM3.29746 5.20714C3.20418 6.23409 2.57659 7.01646 1.8957 6.95461C1.2148 6.89277 0.738448 6.01012 0.831727 4.98317C0.925006 3.95623 1.5526 3.17386 2.23349 3.2357C2.91439 3.29755 3.39074 4.18019 3.29746 5.20714Z" fill="white"/>
</svg>
