<svg width="22" height="22" viewBox="0 0 22 22" fill="none" xmlns="http://www.w3.org/2000/svg">
<path fill-rule="evenodd" clip-rule="evenodd" d="M8.49429 4.32574C9.21184 3.83608 10.3926 4.31704 11.1316 5.40001C11.8707 6.48297 11.8881 7.75783 11.1705 8.24749C10.453 8.73715 9.2722 8.25618 8.53318 7.17322C7.79416 6.09026 7.77675 4.8154 8.49429 4.32574ZM8.38038 11.038C8.87004 10.3205 8.38907 9.13972 7.30611 8.40069C6.22315 7.66167 4.94829 7.64426 4.45863 8.3618C3.96897 9.07935 4.44994 10.2601 5.5329 10.9992C6.61586 11.7382 7.89072 11.7556 8.38038 11.038ZM15.2158 10.0889C14.3446 10.301 13.428 10.2619 12.5794 9.97351C11.7762 9.71399 10.9791 9.81903 10.4662 10.3319C9.95336 10.8447 9.85038 11.6398 10.1078 12.4451C10.3962 13.2937 10.4353 14.2102 10.2232 15.0815C10.0605 15.6891 10.1058 16.1999 10.4044 16.4985C11.1459 17.24 13.1376 16.4512 14.8554 14.7334C16.5731 13.0156 17.362 11.0239 16.6205 10.2825C16.3198 9.96939 15.809 9.9076 15.2158 10.0889ZM15.6164 6.56366C15.2605 5.59584 14.4518 5.00257 13.8101 5.23853C13.1684 5.4745 12.9367 6.45036 13.2926 7.41817C13.6485 8.38599 14.4572 8.97927 15.0989 8.7433C15.7406 8.50733 15.9722 7.53147 15.6164 6.56366ZM7.55084 13.163C8.51866 13.5189 9.11194 14.3276 8.87597 14.9693C8.64 15.611 7.66414 15.8426 6.69633 15.4867C5.72852 15.1308 5.13524 14.3221 5.3712 13.6805C5.60717 13.0388 6.58303 12.8071 7.55084 13.163Z" fill="white"/>
</svg>
